<?xml version="1.0" encoding="iso-8859-1"?>
<!-- Uploaded to: SVG Repo, www.svgrepo.com, Generator: SVG Repo Mixer Tools -->
<!DOCTYPE svg PUBLIC "-//W3C//DTD SVG 1.1//EN" "http://www.w3.org/Graphics/SVG/1.1/DTD/svg11.dtd">
<svg fill="#000000" version="1.1" id="Capa_1" xmlns="http://www.w3.org/2000/svg" xmlns:xlink="http://www.w3.org/1999/xlink" 
	 width="800px" height="800px" viewBox="0 0 88.09 88.09" xml:space="preserve"
	>
<g>
	<path d="M38.536,43.128c0.063,0.333,0.155,0.656,0.27,0.972c0.016,0.042,0.028,0.084,0.045,0.125
		c0.118,0.307,0.264,0.602,0.43,0.887c0.025,0.043,0.051,0.086,0.077,0.129c0.173,0.279,0.367,0.546,0.584,0.797
		c0.016,0.018,0.031,0.035,0.047,0.053c0.079-0.002,0.155-0.014,0.231-0.023c0.069-0.008,0.141-0.011,0.207-0.024
		c0.087-0.019,0.169-0.05,0.252-0.078c0.063-0.021,0.128-0.037,0.188-0.063c0.081-0.035,0.155-0.082,0.23-0.125
		c0.056-0.031,0.115-0.058,0.168-0.094c0.073-0.05,0.138-0.111,0.205-0.169c0.047-0.041,0.099-0.077,0.143-0.12
		c0.063-0.064,0.117-0.139,0.173-0.21c0.037-0.047,0.08-0.09,0.114-0.141c0.053-0.079,0.093-0.166,0.136-0.25
		c0.025-0.052,0.059-0.099,0.08-0.151c0.041-0.097,0.067-0.201,0.095-0.304c0.013-0.047,0.033-0.09,0.043-0.14
		c0.031-0.152,0.048-0.312,0.048-0.475c0-1.31-1.065-2.375-2.375-2.375c-0.153,0-0.304,0.018-0.451,0.047
		c-0.047,0.009-0.092,0.025-0.138,0.037c-0.099,0.026-0.196,0.056-0.291,0.094c-0.051,0.021-0.101,0.045-0.149,0.07
		c-0.087,0.043-0.171,0.091-0.252,0.145c-0.047,0.031-0.093,0.062-0.138,0.096c-0.027,0.021-0.051,0.046-0.077,0.068
		c-0.001,0.022-0.004,0.045-0.004,0.067c0,0.361,0.036,0.717,0.096,1.067C38.528,43.068,38.53,43.098,38.536,43.128z"/>
	<path d="M44.676,52.722c5.928,0,10.75-4.821,10.75-10.75c0-0.236-0.013-0.483-0.033-0.744c-0.002-0.026-0.006-0.055-0.008-0.082
		c-0.918-0.506-1.836-0.951-2.748-1.333c0.059,0.213,0.092,0.432,0.133,0.649c0.022,0.126,0.059,0.25,0.076,0.377
		c0.051,0.374,0.08,0.752,0.08,1.133c0,3.696-2.443,6.833-5.8,7.878c-0.774,0.242-1.599,0.372-2.45,0.372
		c-2.227,0-4.314-0.875-5.879-2.466c-1.529-1.555-2.371-3.609-2.371-5.784c0-0.206,0.015-0.407,0.03-0.609
		c0.022-0.307,0.067-0.612,0.125-0.915c0.018-0.091,0.04-0.18,0.061-0.27c0.027-0.124,0.049-0.248,0.082-0.37
		c-0.913,0.383-1.835,0.83-2.757,1.337c-0.002,0.026-0.006,0.056-0.008,0.082c-0.021,0.26-0.033,0.507-0.033,0.744
		C33.926,47.9,38.749,52.722,44.676,52.722z"/>
	<path d="M63.674,47.472c-1.027-1.043-3.26-3.153-6.254-5.102c-0.005,0.162-0.027,0.319-0.039,0.479
		c-0.014,0.2-0.025,0.401-0.048,0.599c-0.026,0.226-0.063,0.448-0.103,0.669c-0.033,0.193-0.063,0.387-0.104,0.576
		c-0.048,0.222-0.108,0.437-0.168,0.652c-0.051,0.186-0.099,0.37-0.157,0.551c-0.068,0.215-0.15,0.422-0.23,0.631
		c-0.067,0.174-0.131,0.351-0.205,0.521c-0.09,0.206-0.191,0.404-0.293,0.604c-0.081,0.166-0.16,0.334-0.25,0.494
		c-0.108,0.196-0.229,0.385-0.35,0.573c-0.097,0.154-0.188,0.312-0.293,0.461c-0.127,0.187-0.268,0.362-0.404,0.541
		c-0.108,0.144-0.215,0.288-0.33,0.427c-0.146,0.172-0.303,0.336-0.457,0.502c-0.12,0.129-0.237,0.265-0.364,0.39
		c-0.162,0.159-0.334,0.308-0.505,0.459c-0.133,0.118-0.262,0.239-0.396,0.353c-0.179,0.145-0.365,0.275-0.551,0.41
		c-0.143,0.104-0.279,0.215-0.428,0.312c-0.191,0.127-0.395,0.242-0.594,0.359c-0.149,0.09-0.297,0.187-0.45,0.27
		c-0.207,0.111-0.425,0.207-0.638,0.308c-0.156,0.073-0.31,0.154-0.471,0.222c-0.222,0.094-0.451,0.17-0.68,0.25
		c-0.161,0.058-0.318,0.123-0.482,0.174c-0.242,0.074-0.492,0.13-0.742,0.19c-0.156,0.038-0.31,0.086-0.467,0.118
		c-0.281,0.057-0.568,0.092-0.854,0.13c-0.134,0.019-0.265,0.046-0.399,0.06c-0.424,0.043-0.854,0.065-1.29,0.065
		c-0.436,0-0.866-0.022-1.29-0.065c-0.138-0.014-0.271-0.043-0.406-0.061c-0.284-0.038-0.569-0.072-0.847-0.129
		c-0.163-0.033-0.32-0.082-0.48-0.122c-0.244-0.06-0.491-0.114-0.73-0.188c-0.167-0.051-0.326-0.117-0.49-0.176
		c-0.226-0.08-0.453-0.154-0.672-0.246c-0.163-0.068-0.319-0.151-0.479-0.227c-0.21-0.1-0.423-0.193-0.627-0.302
		c-0.158-0.085-0.308-0.185-0.462-0.275c-0.195-0.116-0.394-0.228-0.582-0.354c-0.15-0.1-0.292-0.211-0.438-0.318
		c-0.182-0.133-0.365-0.262-0.54-0.404c-0.141-0.115-0.271-0.24-0.407-0.361c-0.167-0.147-0.336-0.293-0.495-0.449
		c-0.13-0.128-0.25-0.266-0.375-0.4c-0.15-0.162-0.304-0.32-0.446-0.49c-0.118-0.142-0.227-0.291-0.338-0.437
		c-0.135-0.175-0.271-0.349-0.397-0.53c-0.105-0.152-0.2-0.312-0.299-0.472c-0.117-0.187-0.235-0.371-0.343-0.563
		c-0.092-0.164-0.172-0.334-0.256-0.502c-0.099-0.197-0.198-0.393-0.287-0.595c-0.076-0.174-0.141-0.354-0.209-0.53
		c-0.079-0.207-0.159-0.412-0.228-0.623c-0.06-0.183-0.108-0.371-0.159-0.558c-0.059-0.214-0.119-0.427-0.167-0.646
		c-0.042-0.191-0.072-0.387-0.104-0.58c-0.038-0.221-0.076-0.441-0.103-0.667c-0.022-0.198-0.034-0.399-0.048-0.601
		c-0.012-0.16-0.034-0.317-0.039-0.479c-3,1.951-5.228,4.058-6.254,5.101c2.206,2.235,9.963,9.376,18.998,9.376
		C53.727,56.847,61.471,49.708,63.674,47.472z"/>
	<path d="M39.926,39.347c2.412,0,4.375,1.962,4.375,4.375c0,0.27-0.032,0.53-0.079,0.787c-0.013,0.069-0.028,0.136-0.044,0.205
		c-0.05,0.212-0.113,0.418-0.192,0.618c-0.016,0.04-0.027,0.081-0.044,0.12c-0.1,0.229-0.221,0.448-0.357,0.655
		c-0.033,0.053-0.071,0.101-0.107,0.15c-0.117,0.165-0.245,0.32-0.385,0.466c-0.04,0.042-0.077,0.087-0.119,0.128
		c-0.178,0.172-0.368,0.33-0.572,0.471c-0.039,0.027-0.081,0.049-0.121,0.074c-0.105,0.068-0.209,0.139-0.32,0.196
		c0.043,0.021,0.086,0.042,0.129,0.062c0.121,0.056,0.244,0.106,0.368,0.153c0.082,0.031,0.164,0.062,0.247,0.091
		c0.131,0.043,0.264,0.08,0.397,0.114c0.081,0.021,0.161,0.043,0.243,0.062c0.147,0.033,0.297,0.056,0.447,0.076
		c0.07,0.011,0.141,0.024,0.211,0.031c0.223,0.024,0.447,0.038,0.674,0.038c3.446,0,6.25-2.804,6.25-6.25
		c0-0.284-0.023-0.565-0.062-0.844c-0.013-0.093-0.037-0.184-0.054-0.277c-0.035-0.184-0.069-0.368-0.121-0.548
		c-0.028-0.106-0.068-0.21-0.104-0.315c-0.055-0.162-0.111-0.323-0.18-0.48c-0.047-0.106-0.1-0.21-0.151-0.314
		c-0.048-0.096-0.103-0.189-0.153-0.284c-3.686-1.078-7.166-1.079-10.849-0.001c-0.046,0.081-0.094,0.162-0.137,0.245
		c-0.034,0.069-0.071,0.138-0.104,0.208c-0.015,0.031-0.024,0.063-0.038,0.094c0.007-0.002,0.015-0.001,0.021-0.002
		C39.301,39.385,39.612,39.347,39.926,39.347z"/>
	<path d="M2,88.09h84.09c1.104,0,2-0.896,2-2V2c0-1.104-0.896-2-2-2H2C0.896,0,0,0.896,0,2v84.09C0,87.193,0.895,88.09,2,88.09z
		 M76.372,62.843c-7.33,6.579-19.174,10.506-31.682,10.506c-13.062,0-25.202-4.202-32.476-11.239
		c-0.396-0.385-0.407-1.018-0.023-1.414c0.385-0.396,1.018-0.407,1.414-0.023c6.909,6.686,18.53,10.678,31.085,10.678
		c12.028,0,23.373-3.736,30.346-9.994c0.409-0.369,1.043-0.336,1.411,0.076C76.816,61.842,76.783,62.474,76.372,62.843z
		 M44.69,62.847c9.396,0,17.957-3.502,21.81-8.921c0.318-0.449,0.943-0.557,1.395-0.234c0.451,0.319,0.557,0.943,0.236,1.395
		c-4.217,5.93-13.417,9.762-23.44,9.762c-10.711,0-20.154-4.203-24.06-10.707c-0.284-0.474-0.131-1.088,0.343-1.371
		c0.475-0.285,1.088-0.131,1.372,0.342C25.841,58.934,34.822,62.847,44.69,62.847z M23.55,46.811
		c0.146-0.166,3.623-4.08,8.977-7.147c1.925-1.103,3.86-1.96,5.754-2.55c0.001,0,0.001,0,0.002-0.001
		c4.327-1.349,8.468-1.347,12.795,0.003c1.896,0.591,3.83,1.449,5.748,2.548c5.354,3.069,8.831,6.983,8.977,7.147
		c0.332,0.377,0.332,0.943,0,1.321c-0.385,0.438-9.554,10.715-21.125,10.715c-11.572,0-20.742-10.278-21.127-10.715
		C23.218,47.755,23.218,47.189,23.55,46.811z M68.202,42.625c-0.466,0.3-1.083,0.167-1.384-0.297
		c-3.688-5.702-12.373-9.387-22.128-9.387c-10.188,0-19.265,4.08-22.584,10.152c-0.183,0.333-0.525,0.521-0.879,0.521
		c-0.162,0-0.326-0.039-0.479-0.123c-0.484-0.265-0.663-0.873-0.398-1.357c3.66-6.695,13.441-11.193,24.34-11.193
		c10.417,0,19.763,4.043,23.809,10.301C68.798,41.706,68.666,42.325,68.202,42.625z M44.69,66.775
		c10.562,0,20.472-3.586,25.865-9.359c0.375-0.404,1.01-0.424,1.412-0.049c0.403,0.378,0.426,1.011,0.049,1.414
		c-5.846,6.26-16.062,9.996-27.326,9.996c-11.694,0-22.443-4.144-28.053-10.812c-0.355-0.422-0.301-1.053,0.122-1.409
		c0.423-0.356,1.053-0.301,1.409,0.122C23.408,62.906,33.57,66.775,44.69,66.775z M71.18,39.07
		c-5.248-6.204-15.397-10.058-26.49-10.058c-11.451,0-22.071,4.226-27.054,10.766c-0.197,0.258-0.495,0.394-0.797,0.394
		c-0.211,0-0.424-0.066-0.605-0.205c-0.438-0.334-0.523-0.962-0.189-1.401c5.431-7.127,16.407-11.554,28.646-11.554
		c11.665,0,22.399,4.126,28.017,10.768c0.356,0.421,0.304,1.052-0.118,1.409C72.167,39.546,71.536,39.492,71.18,39.07z
		 M11.24,34.671c7.145-7.658,19.649-12.23,33.45-12.23c13.263,0,25.505,4.305,32.751,11.516c0.392,0.39,0.394,1.023,0.004,1.415
		c-0.391,0.391-1.024,0.392-1.414,0.003c-6.879-6.846-18.596-10.934-31.341-10.934c-13.059,0-25.315,4.443-31.987,11.594
		c-0.197,0.211-0.464,0.318-0.731,0.318c-0.244,0-0.489-0.089-0.683-0.269C10.885,35.707,10.863,35.074,11.24,34.671z"/>
</g>
</svg>